<?xml version="1.0" encoding="iso-8859-1"?>
<!-- Generator: Adobe Illustrator 18.0.0, SVG Export Plug-In . SVG Version: 6.00 Build 0)  -->
<!DOCTYPE svg PUBLIC "-//W3C//DTD SVG 1.1//EN" "http://www.w3.org/Graphics/SVG/1.1/DTD/svg11.dtd">
<svg version="1.1" id="Capa_1" xmlns="http://www.w3.org/2000/svg" xmlns:xlink="http://www.w3.org/1999/xlink" x="0px" y="0px"
	 viewBox="0 0 56.966 56.966" style="enable-background:new 0 0 56.966 56.966;" xml:space="preserve">
<path d="M17.974,24.819h21.019c0.536,0,1.031-0.286,1.299-0.75c0.268-0.464,0.268-1.036,0-1.5L29.782,4.366
	c-0.268-0.464-0.763-0.75-1.299-0.75c-0.536,0-1.031,0.286-1.299,0.75l-10.51,18.203c-0.269,0.464-0.269,1.036,0,1.5
	C16.943,24.533,17.438,24.819,17.974,24.819z M28.484,8.116l7.911,13.703H20.572L28.484,8.116z M56.765,52.601
	c-0.268,0.464-0.763,0.75-1.299,0.75H1.5c-0.536,0-1.031-0.286-1.299-0.75c-0.269-0.464-0.269-1.036,0-1.5l10.51-18.202
	c0.268-0.464,0.763-0.75,1.299-0.75h32.946c0.536,0,1.031,0.286,1.299,0.75l10.51,18.202C57.033,51.565,57.033,52.137,56.765,52.601
	z"/>
<g>
</g>
<g>
</g>
<g>
</g>
<g>
</g>
<g>
</g>
<g>
</g>
<g>
</g>
<g>
</g>
<g>
</g>
<g>
</g>
<g>
</g>
<g>
</g>
<g>
</g>
<g>
</g>
<g>
</g>
</svg>
