<?xml version="1.0" encoding="iso-8859-1"?>
<!-- Generator: Adobe Illustrator 16.0.0, SVG Export Plug-In . SVG Version: 6.00 Build 0)  -->
<!DOCTYPE svg PUBLIC "-//W3C//DTD SVG 1.1//EN" "http://www.w3.org/Graphics/SVG/1.1/DTD/svg11.dtd">
<svg version="1.1" id="Capa_1" xmlns="http://www.w3.org/2000/svg" xmlns:xlink="http://www.w3.org/1999/xlink" x="0px" y="0px"
	 width="964.157px" height="964.157px" viewBox="0 0 964.157 964.157" style="enable-background:new 0 0 964.157 964.157;"
	 xml:space="preserve">
<g>
	<g>
		<g>
			<path d="M446.588,257.318c52.362,13.219,105.527-18.514,118.746-70.877l25.439-100.775c3.298-13.062-5.964-25.946-19.396-26.983
				c-26.808-2.072-85.602-5.09-127.224-7.121c-26.712-1.304-50.622,16.415-57.168,42.345l-11.275,44.668
				C362.494,190.936,394.226,244.1,446.588,257.318z"/>
			<g>
				<path d="M557.196,659.092l-125.853-61.614l49.048-196.192l63.068,93.126c6.16,9.097,15.758,15.296,26.583,17.169
					c2.294,0.398,4.599,0.593,6.896,0.593c8.54,0,16.929-2.708,23.91-7.828l105.552-77.403c18.008-13.207,21.9-38.511,8.694-56.519
					c-13.206-18.009-38.51-21.899-56.518-8.695l-71.699,52.58c0,0-51.56-75.686-70.06-102.839
					c-4.191-6.154-10.507-10.538-17.735-12.32l-142.808-35.199c-7.673-1.891-15.653-2.177-23.441-0.84l-149.862,25.727
					c-21.15,3.686-35.732,23.261-33.211,44.581l14.073,119.038c2.431,20.565,19.894,35.693,40.104,35.693
					c1.537,0,3.089-0.088,4.651-0.268c22.177-2.539,38.088-23.478,35.468-45.646l-9.494-80.303l90.35-15.748l-64.36,257.44
					L163.972,719.08l-82.521-83.738c-18.441-18.713-48.559-18.934-67.271-0.491c-18.712,18.439-18.933,48.56-0.492,67.271
					l119.284,121.044c8.958,9.09,21.171,14.18,33.88,14.18c0.645,0,1.292-0.014,1.939-0.039
					c13.399-0.547,25.945-6.723,34.549-17.008L339.436,657.61c2.19,1.588,4.535,3.021,7.048,4.25l132.945,65.088l-36.32,124.846
					c-7.339,25.228,7.161,51.625,32.387,58.963c4.438,1.291,8.911,1.906,13.31,1.906c20.613,0,39.605-13.505,45.654-34.294
					l47.497-163.265C588.416,692.898,577.968,669.262,557.196,659.092z"/>
				<path d="M921.452,550.439c3.583-6.371,3.359-14.514-1.239-20.792l-66.74-91.126c-1.08-1.477-2.321-2.762-3.682-3.857
					c-7.059-5.69-17.315-6.182-24.976-0.57l-44.042,32.256l-4.964,3.636l-0.929,0.68l-16.247-22.183
					c-4.879-6.663-12.739-10.642-21.022-10.642c-5.559,0-10.866,1.736-15.353,5.022L645,499.449
					c-5.603,4.103-9.271,10.146-10.333,17.023c-1.063,6.878,0.611,13.749,4.715,19.352l16.247,22.183l-0.93,0.683l-4.962,3.635
					l-45.074,33.013c-8.565,6.273-10.424,18.302-4.15,26.866l67.497,92.159c4.601,6.28,12.294,8.948,19.449,7.456l38.741,52.896
					c6.69,9.136,19.521,11.117,28.657,4.427l200.909-147.147c9.137-6.69,11.118-19.521,4.428-28.656L921.452,550.439z
					 M748.879,489.711l-2.813,2.063l-2.148,1.571l-57.318,41.981l-4.963,3.635l-0.928,0.68l-13.261-18.104l69.103-50.61
					l13.259,18.105L748.879,489.711z M832.434,656.069l-17.407,12.749c-7.31,5.352-17.573,3.767-22.926-3.542l-10.615-14.494
					l43.874-32.134l10.615,14.495C841.327,640.452,839.742,650.716,832.434,656.069z"/>
			</g>
		</g>
	</g>
</g>
<g>
</g>
<g>
</g>
<g>
</g>
<g>
</g>
<g>
</g>
<g>
</g>
<g>
</g>
<g>
</g>
<g>
</g>
<g>
</g>
<g>
</g>
<g>
</g>
<g>
</g>
<g>
</g>
<g>
</g>
</svg>
