<?xml version="1.0" encoding="iso-8859-1"?>
<!-- Generator: Adobe Illustrator 18.1.1, SVG Export Plug-In . SVG Version: 6.00 Build 0)  -->
<svg version="1.1" id="Capa_1" xmlns="http://www.w3.org/2000/svg" xmlns:xlink="http://www.w3.org/1999/xlink" x="0px" y="0px"
	 viewBox="0 0 589.002 589.002" style="enable-background:new 0 0 589.002 589.002;;" xml:space="preserve">
<g>
	<path style="fill:rgba(66, 139, 202, 0.7);" d="M241.251,379.258c0,29.299,23.718,53.25,53.017,53.25c29.531,0,53.25-23.718,53.25-53.25
		s-23.718-53.017-53.25-53.017C264.969,326.241,241.251,349.96,241.251,379.258z"/>
	<path style="fill:rgba(66, 139, 202, 0.7);" d="M337.054,441.112h-85.339c-15.347,0-27.671,13.952-27.671,31.159v85.571
		c0,17.207,12.557,31.159,27.671,31.159h85.339c15.115,0,27.671-13.952,27.671-31.159v-85.571
		C364.725,455.064,352.169,441.112,337.054,441.112z"/>
	<circle style="fill:rgba(66, 139, 202, 0.7);" cx="102.663" cy="379.258" r="53.25"/>
	<path style="fill:rgba(66, 139, 202, 0.7);" d="M145.448,441.112H60.342c-15.115,0-27.671,13.952-27.671,31.159v85.571
		c0,17.207,12.557,31.159,27.671,31.159h85.106c15.347,0,27.671-13.952,27.671-31.159v-85.571
		C173.12,455.064,160.563,441.112,145.448,441.112z"/>
	<path style="fill:rgba(66, 139, 202, 0.7);" d="M528.66,441.112h-85.339c-15.115,0-27.671,13.952-27.671,31.159v85.571
		c0,17.207,12.557,31.159,27.671,31.159h85.339c15.115,0,27.671-13.952,27.671-31.159v-85.571
		C556.331,455.064,543.774,441.112,528.66,441.112z"/>
	<path style="fill:rgba(66, 139, 202, 0.7);" d="M432.857,379.258c0,29.299,23.718,53.25,53.017,53.25c29.531,0,53.25-23.718,53.25-53.017
		c0-29.299-23.718-53.25-53.25-53.25C456.575,326.241,432.857,349.96,432.857,379.258z"/>
	<path style="fill:rgba(66, 139, 202, 0.7);" d="M124.52,302.523l84.409-84.874h76.735v96.5h17.44v-96.5h76.735l84.409,84.641l12.324-12.324
		l-72.085-72.317h65.109V0H118.94v217.649h65.109l-72.085,72.55L124.52,302.523z M139.402,75.573h306.244v112.313H139.402V75.573z"
		/>
</g>
<g>
</g>
<g>
</g>
<g>
</g>
<g>
</g>
<g>
</g>
<g>
</g>
<g>
</g>
<g>
</g>
<g>
</g>
<g>
</g>
<g>
</g>
<g>
</g>
<g>
</g>
<g>
</g>
<g>
</g>
</svg>
